<svg width="137" height="81" viewBox="0 0 137 81" fill="white" xmlns="http://www.w3.org/2000/svg">
<path d="M69 14.9999C55.2017 19.0443 43.3964 21.8814 32.4445 31.7777C25.957 37.6399 20.2081 44.489 15 51.4999C9.83894 58.4475 7.72577 65.6198 3.50003 72.9444C2.33695 74.9604 1.20354 79.8101 3.22225 75.2221C4.31549 72.7375 11.6583 71.4787 13.8334 70.4999C21.2263 67.1731 22.4701 71.2035 27 75.9999C30.6643 79.8797 32.0127 73.51 35.7778 70.9999C41.2105 67.3781 49.2192 65.0398 55.0556 68.4444C56.9186 69.5312 60.4065 71.2642 61.2223 73.2221C62.8562 77.1436 63.5544 75.0568 65.2223 73.2221C69.6098 68.3958 72.1646 66.9999 79.5 66.9999C86.0669 66.9999 92.6675 68.7106 98.6667 71.4444C101.342 72.6637 107.367 78.8888 110.444 78.8888C110.457 78.8888 111.91 75.7383 113 75.2221C115.973 73.8141 118.694 71.9999 122 71.9999C125.482 71.9999 128.963 71.9999 132.444 71.9999C136.149 71.9999 134.17 70.8343 132.556 68.5555C130.112 65.1062 126.756 62.1628 123.944 58.9999C118.752 53.1586 114.233 46.8703 109 41.0555C98.5751 29.4722 86.108 17.9305 71.2223 12.7777C67.867 11.6163 69.3628 8.92786 68.9445 5.99992C68.7546 4.67064 67 -0.333426 67 3.44437C67 5.29622 67 7.14807 67 8.99992C67 11.3035 69 11.5296 69 13.9999" stroke="black" stroke-width="3" stroke-linecap="round"/>
</svg>
