<?xml version="1.0" encoding="iso-8859-1"?>
<!-- Generator: Adobe Illustrator 19.0.0, SVG Export Plug-In . SVG Version: 6.00 Build 0)  -->
<svg version="1.1" id="Layer_1" xmlns="http://www.w3.org/2000/svg" xmlns:xlink="http://www.w3.org/1999/xlink" x="0px" y="0px"
	 viewBox="0 0 511.999 511.999" style="enable-background:new 0 0 511.999 511.999;" xml:space="preserve">
<g>
	<g>
		<g>
			<path d="M511.994,281.456c-0.001-0.032,0-0.065-0.001-0.098c-0.117-68.21-26.729-132.32-74.975-180.566
				C391.214,54.988,331.106,28.695,266.77,26.05V10.77C266.77,4.822,261.948,0,256,0s-10.77,4.822-10.77,10.77v15.281
				c-64.333,2.644-124.446,28.941-170.247,74.742C26.737,149.039,0.124,213.149,0.006,281.359c-0.001,0.031-0.001,0.064-0.001,0.095
				c0,0.12-0.004,0.239-0.004,0.358c0,0.068,0.009,0.132,0.01,0.199c0.005,0.242,0.016,0.484,0.037,0.728
				c0.013,0.144,0.029,0.286,0.047,0.428c0.025,0.199,0.054,0.396,0.092,0.596c0.032,0.183,0.073,0.363,0.115,0.544
				c0.025,0.098,0.038,0.196,0.064,0.294c0.018,0.065,0.044,0.126,0.062,0.191c0.056,0.192,0.117,0.379,0.183,0.565
				c0.055,0.158,0.11,0.313,0.17,0.467c0.067,0.164,0.139,0.324,0.212,0.484c0.079,0.171,0.157,0.341,0.243,0.508
				c0.069,0.128,0.141,0.252,0.213,0.378c0.108,0.185,0.215,0.37,0.333,0.548c0.066,0.099,0.137,0.194,0.206,0.292
				c0.135,0.19,0.27,0.378,0.417,0.558c0.068,0.084,0.142,0.165,0.213,0.247c0.154,0.179,0.309,0.354,0.473,0.52
				c0.083,0.085,0.17,0.164,0.256,0.246c0.159,0.154,0.322,0.305,0.491,0.447c0.107,0.09,0.219,0.173,0.33,0.26
				c0.156,0.121,0.313,0.243,0.475,0.355c0.136,0.094,0.278,0.18,0.417,0.268c0.149,0.091,0.294,0.185,0.446,0.27
				c0.158,0.089,0.323,0.169,0.486,0.251c0.145,0.072,0.289,0.145,0.437,0.21c0.167,0.074,0.338,0.139,0.512,0.205
				c0.156,0.059,0.311,0.118,0.47,0.171c0.162,0.054,0.327,0.098,0.492,0.144c0.18,0.05,0.36,0.099,0.543,0.139
				c0.146,0.032,0.294,0.058,0.442,0.084c0.21,0.037,0.42,0.071,0.633,0.097c0.13,0.015,0.263,0.024,0.395,0.034
				c0.229,0.019,0.459,0.031,0.691,0.034c0.056,0.001,0.109,0.009,0.165,0.009c0.083,0,0.164-0.011,0.248-0.013
				c0.212-0.004,0.425-0.014,0.64-0.031c0.174-0.015,0.347-0.036,0.519-0.058c0.167-0.023,0.335-0.046,0.501-0.076
				c0.218-0.039,0.431-0.086,0.644-0.138c0.078-0.019,0.155-0.029,0.234-0.051c1.687-0.452,3.379-0.913,5.078-1.378
				c26.01-7.103,52.908-14.447,111.963,1.378c0.029,0.009,0.059,0.011,0.089,0.018c0.423,0.11,0.853,0.199,1.29,0.256
				c0.04,0.005,0.082,0.006,0.123,0.012c0.372,0.044,0.745,0.068,1.124,0.072c0.055,0.001,0.112,0.012,0.167,0.012
				c0.136,0,0.269-0.012,0.405-0.017c0.108-0.004,0.214-0.006,0.324-0.014c0.316-0.023,0.63-0.055,0.941-0.104
				c0.013-0.002,0.024-0.003,0.037-0.005c0.347-0.056,0.688-0.13,1.024-0.22c0.017-0.004,0.033-0.006,0.049-0.011
				c1.688-0.452,3.378-0.913,5.079-1.378c24.805-6.773,50.437-13.751,103.978-0.659v179.064c0,11.698-9.519,21.217-21.216,21.217
				c-11.7,0-21.217-9.519-21.217-21.217c0-5.948-4.822-10.77-10.77-10.77c-5.947,0-10.77,4.822-10.77,10.77
				c0,23.577,19.182,42.757,42.757,42.757c23.576,0,42.756-19.182,42.756-42.757V290.178c53.543-13.092,79.176-6.115,103.982,0.658
				c1.7,0.465,3.39,0.925,5.078,1.378c0.015,0.004,0.03,0.006,0.046,0.011c0.121,0.031,0.244,0.059,0.366,0.086
				c0.124,0.028,0.247,0.055,0.372,0.078c0.098,0.019,0.195,0.041,0.293,0.057c0.004,0.001,0.009,0.001,0.014,0.002
				c0.136,0.022,0.274,0.034,0.411,0.051c0.082,0.011,0.164,0.023,0.248,0.031c0.101,0.01,0.204,0.018,0.305,0.024
				c0.107,0.008,0.21,0.01,0.316,0.014c0.137,0.005,0.274,0.017,0.41,0.017c0.057,0,0.113-0.011,0.17-0.012
				c0.232-0.003,0.461-0.017,0.69-0.034c0.13-0.011,0.262-0.02,0.391-0.034c0.012-0.001,0.024-0.002,0.033-0.003
				c0.044-0.005,0.087-0.006,0.131-0.012c0.16-0.022,0.32-0.055,0.479-0.084c0.142-0.025,0.285-0.049,0.425-0.08
				c0.128-0.028,0.255-0.059,0.382-0.093c0.029-0.008,0.06-0.01,0.089-0.018c59.057-15.824,85.953-8.48,111.961-1.378
				c1.7,0.465,3.389,0.925,5.076,1.378c0.078,0.021,0.158,0.031,0.236,0.051c0.212,0.052,0.425,0.099,0.641,0.138
				c0.167,0.03,0.335,0.055,0.502,0.076c0.172,0.023,0.345,0.043,0.52,0.058c0.213,0.018,0.426,0.026,0.64,0.031
				c0.084,0.002,0.165,0.013,0.249,0.013c0.056,0,0.111-0.008,0.165-0.009c0.23-0.003,0.459-0.016,0.686-0.034
				c0.135-0.011,0.269-0.02,0.404-0.036c0.208-0.024,0.415-0.058,0.621-0.095c0.153-0.026,0.304-0.053,0.453-0.086
				c0.178-0.039,0.353-0.087,0.528-0.136c0.17-0.046,0.34-0.093,0.508-0.149c0.153-0.049,0.3-0.108,0.451-0.165
				c0.178-0.068,0.355-0.135,0.53-0.211c0.141-0.062,0.278-0.132,0.417-0.201c0.17-0.084,0.34-0.167,0.505-0.26
				c0.145-0.082,0.286-0.171,0.428-0.26c0.146-0.091,0.293-0.182,0.434-0.28c0.158-0.11,0.308-0.227,0.461-0.344
				c0.114-0.089,0.232-0.177,0.342-0.27c0.166-0.14,0.324-0.289,0.481-0.437c0.088-0.085,0.179-0.166,0.265-0.253
				c0.162-0.165,0.316-0.339,0.469-0.515c0.072-0.084,0.149-0.166,0.218-0.252c0.147-0.181,0.282-0.368,0.416-0.557
				c0.069-0.097,0.141-0.194,0.206-0.293c0.117-0.177,0.226-0.361,0.333-0.547c0.073-0.125,0.146-0.249,0.213-0.378
				c0.087-0.166,0.166-0.337,0.246-0.509c0.073-0.159,0.145-0.318,0.211-0.48c0.063-0.155,0.116-0.312,0.171-0.472
				c0.066-0.185,0.127-0.372,0.182-0.561c0.018-0.066,0.044-0.126,0.063-0.193c0.026-0.099,0.04-0.198,0.065-0.297
				c0.042-0.179,0.082-0.358,0.115-0.54c0.037-0.199,0.066-0.398,0.092-0.598c0.017-0.142,0.034-0.283,0.046-0.427
				c0.023-0.244,0.032-0.488,0.038-0.731c0-0.065,0.01-0.129,0.01-0.197C511.998,281.693,511.994,281.574,511.994,281.456z
				 M245.228,268.045c-55.602-12.725-84.212-4.934-109.652,2.012c-0.754,0.206-1.502,0.407-2.253,0.612
				c-55.887-14.539-86.273-9.519-111.342-3.03C28.033,166.64,98.301,82.667,192.417,56.117
				c-30.328,31.13-53.743,84.4-64.133,151.148c-0.915,5.878,3.108,11.384,8.985,12.298c5.887,0.914,11.383-3.108,12.298-8.985
				c13.824-88.82,52.255-152.877,95.66-162.08V268.045z M266.77,268.046V48.477c24.535,5.123,47.753,27.66,66.297,64.748
				c20.765,41.531,32.883,95.942,34.565,154.474C344.167,261.607,316.086,256.759,266.77,268.046z M389.193,268.089
				c-1.668-62.007-14.603-119.982-36.861-164.497c-9.599-19.2-20.542-35.086-32.466-47.396
				c93.973,26.638,164.104,110.546,170.15,211.444C466.566,261.569,438.468,256.781,389.193,268.089z"/>
			<path d="M136.195,228.619c-5.919-0.522-11.155,3.847-11.683,9.772l-0.092,1.039c-0.524,5.926,3.855,11.152,9.779,11.677
				c0.323,0.029,0.643,0.043,0.962,0.043c5.519,0,10.22-4.22,10.715-9.822l0.092-1.025
				C146.496,234.377,142.12,229.148,136.195,228.619z"/>
		</g>
	</g>
</g>
<g>
</g>
<g>
</g>
<g>
</g>
<g>
</g>
<g>
</g>
<g>
</g>
<g>
</g>
<g>
</g>
<g>
</g>
<g>
</g>
<g>
</g>
<g>
</g>
<g>
</g>
<g>
</g>
<g>
</g>
</svg>
